<?xml version="1.0" standalone="no"?>
<!DOCTYPE svg PUBLIC "-//W3C//DTD SVG 20010904//EN"
 "http://www.w3.org/TR/2001/REC-SVG-20010904/DTD/svg10.dtd">
<svg version="1.0" xmlns="http://www.w3.org/2000/svg"
 width="200.000000pt" height="50.000000pt" viewBox="0 0 200.000000 50.000000"
 preserveAspectRatio="xMidYMid meet">

<g transform="translate(0.000000,50.000000) scale(0.100000,-0.100000)"
fill="#000000" stroke="none">
<path d="M1500 243 c0 -9 3 -13 7 -10 13 13 33 -16 33 -49 0 -19 5 -34 10 -34
16 0 12 77 -6 94 -20 21 -44 20 -44 -1z"/>
<path d="M610 205 c0 -36 3 -46 11 -38 6 6 12 23 12 38 0 15 -6 32 -12 38 -8
8 -11 -2 -11 -38z"/>
<path d="M421 213 c-16 -39 -10 -68 8 -35 7 13 11 33 9 45 -3 19 -5 18 -17
-10z"/>
<path d="M1670 220 c0 -5 5 -10 10 -10 6 0 10 5 10 10 0 6 -4 10 -10 10 -5 0
-10 -4 -10 -10z"/>
<path d="M1595 190 c-3 -5 1 -10 9 -10 9 0 16 5 16 10 0 6 -4 10 -9 10 -6 0
-13 -4 -16 -10z"/>
<path d="M113 137 c17 -25 72 -60 87 -55 6 2 -15 20 -46 40 -45 30 -53 33 -41
15z"/>
<path d="M320 100 c0 -5 5 -10 11 -10 5 0 7 5 4 10 -3 6 -8 10 -11 10 -2 0 -4
-4 -4 -10z"/>
</g>
</svg>
